<mxfile host="app.diagrams.net" modified="2023-10-14T16:46:37.734Z" agent="Mozilla/5.0 (Windows NT 10.0; Win64; x64; rv:109.0) Gecko/20100101 Firefox/119.0" etag="cScSTmrZ3AsRCFmr7Lpj" version="22.0.4" type="device">
  <diagram name="Page-1" id="QyLstI6LIwdhRGIR5yRl">
    <mxGraphModel dx="1434" dy="1943" grid="1" gridSize="10" guides="1" tooltips="1" connect="1" arrows="1" fold="1" page="1" pageScale="1" pageWidth="827" pageHeight="1169" math="0" shadow="0">
      <root>
        <mxCell id="0" />
        <mxCell id="1" parent="0" />
        <mxCell id="f_cGPFJDXGQllaGJy8tu-67" style="edgeStyle=orthogonalEdgeStyle;rounded=0;orthogonalLoop=1;jettySize=auto;html=1;entryX=0;entryY=0.5;entryDx=0;entryDy=0;startArrow=classic;startFill=1;dashed=1;" edge="1" parent="1" target="f_cGPFJDXGQllaGJy8tu-63">
          <mxGeometry relative="1" as="geometry">
            <mxPoint x="250" y="230" as="sourcePoint" />
          </mxGeometry>
        </mxCell>
        <mxCell id="f_cGPFJDXGQllaGJy8tu-21" value="Incoming HTTP request" style="text;html=1;strokeColor=none;fillColor=none;align=center;verticalAlign=middle;whiteSpace=wrap;rounded=0;" vertex="1" parent="1">
          <mxGeometry x="270" y="190" width="60" height="30" as="geometry" />
        </mxCell>
        <mxCell id="f_cGPFJDXGQllaGJy8tu-22" value="&lt;div&gt;&lt;br&gt;&lt;/div&gt;&lt;div&gt;SQLite DB&lt;/div&gt;" style="strokeWidth=2;html=1;shape=mxgraph.flowchart.database;whiteSpace=wrap;fillColor=#f8cecc;strokeColor=#b85450;" vertex="1" parent="1">
          <mxGeometry x="815" y="445" width="60" height="60" as="geometry" />
        </mxCell>
        <mxCell id="f_cGPFJDXGQllaGJy8tu-24" value="Plain-text password" style="text;html=1;strokeColor=none;fillColor=none;align=center;verticalAlign=middle;whiteSpace=wrap;rounded=0;" vertex="1" parent="1">
          <mxGeometry x="677" y="305.5" width="130" height="30" as="geometry" />
        </mxCell>
        <mxCell id="f_cGPFJDXGQllaGJy8tu-42" value="&lt;div&gt;Adventure Story Text&lt;/div&gt;&lt;div&gt;and Battle Setttings&lt;/div&gt;" style="rounded=0;whiteSpace=wrap;html=1;fillColor=#fff2cc;strokeColor=#d6b656;" vertex="1" parent="1">
          <mxGeometry x="760" y="585" width="170" height="60" as="geometry" />
        </mxCell>
        <mxCell id="f_cGPFJDXGQllaGJy8tu-45" style="edgeStyle=orthogonalEdgeStyle;rounded=0;orthogonalLoop=1;jettySize=auto;html=1;entryX=0.5;entryY=1;entryDx=0;entryDy=0;entryPerimeter=0;" edge="1" parent="1" source="f_cGPFJDXGQllaGJy8tu-42" target="f_cGPFJDXGQllaGJy8tu-22">
          <mxGeometry relative="1" as="geometry" />
        </mxCell>
        <mxCell id="f_cGPFJDXGQllaGJy8tu-46" value="Elliptical Curve Signer" style="ellipse;whiteSpace=wrap;html=1;aspect=fixed;fillColor=#dae8fc;strokeColor=#6c8ebf;" vertex="1" parent="1">
          <mxGeometry x="590" y="20" width="80" height="80" as="geometry" />
        </mxCell>
        <mxCell id="f_cGPFJDXGQllaGJy8tu-47" value="Password Hashing" style="ellipse;whiteSpace=wrap;html=1;aspect=fixed;fillColor=#dae8fc;strokeColor=#6c8ebf;" vertex="1" parent="1">
          <mxGeometry x="805" y="295" width="80" height="80" as="geometry" />
        </mxCell>
        <mxCell id="f_cGPFJDXGQllaGJy8tu-48" value="Login" style="ellipse;whiteSpace=wrap;html=1;aspect=fixed;fillColor=#e1d5e7;strokeColor=#9673a6;" vertex="1" parent="1">
          <mxGeometry x="590" y="190" width="80" height="80" as="geometry" />
        </mxCell>
        <mxCell id="f_cGPFJDXGQllaGJy8tu-53" style="edgeStyle=orthogonalEdgeStyle;rounded=0;orthogonalLoop=1;jettySize=auto;html=1;exitX=1;exitY=0;exitDx=0;exitDy=0;entryX=1;entryY=1;entryDx=0;entryDy=0;" edge="1" parent="1" target="f_cGPFJDXGQllaGJy8tu-46">
          <mxGeometry relative="1" as="geometry">
            <mxPoint x="658.2842712474621" y="201.71572875253787" as="sourcePoint" />
          </mxGeometry>
        </mxCell>
        <mxCell id="f_cGPFJDXGQllaGJy8tu-52" value="" style="endArrow=classic;html=1;rounded=0;exitX=0;exitY=1;exitDx=0;exitDy=0;entryX=0;entryY=0;entryDx=0;entryDy=0;" edge="1" parent="1" source="f_cGPFJDXGQllaGJy8tu-46">
          <mxGeometry width="50" height="50" relative="1" as="geometry">
            <mxPoint x="600" y="420" as="sourcePoint" />
            <mxPoint x="601.7157287525379" y="201.71572875253787" as="targetPoint" />
          </mxGeometry>
        </mxCell>
        <mxCell id="f_cGPFJDXGQllaGJy8tu-54" value="Signed Token" style="text;html=1;strokeColor=none;fillColor=none;align=center;verticalAlign=middle;whiteSpace=wrap;rounded=0;" vertex="1" parent="1">
          <mxGeometry x="540" y="110" width="60" height="30" as="geometry" />
        </mxCell>
        <mxCell id="f_cGPFJDXGQllaGJy8tu-55" value="Token to be signed" style="text;html=1;strokeColor=none;fillColor=none;align=center;verticalAlign=middle;whiteSpace=wrap;rounded=0;" vertex="1" parent="1">
          <mxGeometry x="660" y="110" width="60" height="30" as="geometry" />
        </mxCell>
        <mxCell id="f_cGPFJDXGQllaGJy8tu-58" style="edgeStyle=orthogonalEdgeStyle;rounded=0;orthogonalLoop=1;jettySize=auto;html=1;entryX=0;entryY=0.5;entryDx=0;entryDy=0;" edge="1" parent="1" source="f_cGPFJDXGQllaGJy8tu-57" target="f_cGPFJDXGQllaGJy8tu-47">
          <mxGeometry relative="1" as="geometry" />
        </mxCell>
        <mxCell id="f_cGPFJDXGQllaGJy8tu-57" value="Signup" style="ellipse;whiteSpace=wrap;html=1;aspect=fixed;fillColor=#e1d5e7;strokeColor=#9673a6;" vertex="1" parent="1">
          <mxGeometry x="590" y="295" width="80" height="80" as="geometry" />
        </mxCell>
        <mxCell id="f_cGPFJDXGQllaGJy8tu-59" style="edgeStyle=orthogonalEdgeStyle;rounded=0;orthogonalLoop=1;jettySize=auto;html=1;entryX=0.5;entryY=0;entryDx=0;entryDy=0;entryPerimeter=0;" edge="1" parent="1" source="f_cGPFJDXGQllaGJy8tu-47" target="f_cGPFJDXGQllaGJy8tu-22">
          <mxGeometry relative="1" as="geometry" />
        </mxCell>
        <mxCell id="f_cGPFJDXGQllaGJy8tu-61" value="Text" style="text;html=1;strokeColor=none;fillColor=none;align=center;verticalAlign=middle;whiteSpace=wrap;rounded=0;" vertex="1" parent="1">
          <mxGeometry x="805" y="535" width="130" height="30" as="geometry" />
        </mxCell>
        <mxCell id="f_cGPFJDXGQllaGJy8tu-62" value="Hashed Password" style="text;html=1;strokeColor=none;fillColor=none;align=center;verticalAlign=middle;whiteSpace=wrap;rounded=0;" vertex="1" parent="1">
          <mxGeometry x="845" y="395" width="130" height="30" as="geometry" />
        </mxCell>
        <mxCell id="f_cGPFJDXGQllaGJy8tu-72" style="edgeStyle=orthogonalEdgeStyle;rounded=0;orthogonalLoop=1;jettySize=auto;html=1;entryX=0;entryY=0.5;entryDx=0;entryDy=0;" edge="1" parent="1" source="f_cGPFJDXGQllaGJy8tu-63" target="f_cGPFJDXGQllaGJy8tu-48">
          <mxGeometry relative="1" as="geometry" />
        </mxCell>
        <mxCell id="f_cGPFJDXGQllaGJy8tu-78" style="edgeStyle=orthogonalEdgeStyle;rounded=0;orthogonalLoop=1;jettySize=auto;html=1;entryX=0.5;entryY=0;entryDx=0;entryDy=0;" edge="1" parent="1" source="f_cGPFJDXGQllaGJy8tu-63" target="f_cGPFJDXGQllaGJy8tu-76">
          <mxGeometry relative="1" as="geometry" />
        </mxCell>
        <mxCell id="f_cGPFJDXGQllaGJy8tu-63" value="Flask App" style="rounded=1;whiteSpace=wrap;html=1;fillColor=#d5e8d4;strokeColor=#82b366;" vertex="1" parent="1">
          <mxGeometry x="350" y="200" width="120" height="60" as="geometry" />
        </mxCell>
        <mxCell id="f_cGPFJDXGQllaGJy8tu-73" value="Request Object" style="text;html=1;strokeColor=none;fillColor=none;align=center;verticalAlign=middle;whiteSpace=wrap;rounded=0;" vertex="1" parent="1">
          <mxGeometry x="500" y="200" width="60" height="30" as="geometry" />
        </mxCell>
        <mxCell id="f_cGPFJDXGQllaGJy8tu-75" value="" style="endArrow=classic;html=1;rounded=0;exitX=0.5;exitY=1;exitDx=0;exitDy=0;entryX=0;entryY=0.5;entryDx=0;entryDy=0;" edge="1" parent="1" source="f_cGPFJDXGQllaGJy8tu-73" target="f_cGPFJDXGQllaGJy8tu-57">
          <mxGeometry width="50" height="50" relative="1" as="geometry">
            <mxPoint x="720" y="390" as="sourcePoint" />
            <mxPoint x="770" y="340" as="targetPoint" />
            <Array as="points">
              <mxPoint x="530" y="335" />
            </Array>
          </mxGeometry>
        </mxCell>
        <mxCell id="f_cGPFJDXGQllaGJy8tu-84" style="edgeStyle=orthogonalEdgeStyle;rounded=0;orthogonalLoop=1;jettySize=auto;html=1;entryX=0.5;entryY=0;entryDx=0;entryDy=0;startArrow=classic;startFill=1;" edge="1" parent="1" source="f_cGPFJDXGQllaGJy8tu-76" target="f_cGPFJDXGQllaGJy8tu-82">
          <mxGeometry relative="1" as="geometry" />
        </mxCell>
        <mxCell id="f_cGPFJDXGQllaGJy8tu-76" value="Authorisation Checker" style="ellipse;whiteSpace=wrap;html=1;aspect=fixed;fillColor=#e1d5e7;strokeColor=#9673a6;" vertex="1" parent="1">
          <mxGeometry x="370" y="305.5" width="80" height="80" as="geometry" />
        </mxCell>
        <mxCell id="f_cGPFJDXGQllaGJy8tu-80" value="Request Object + token" style="text;html=1;strokeColor=none;fillColor=none;align=center;verticalAlign=middle;whiteSpace=wrap;rounded=0;" vertex="1" parent="1">
          <mxGeometry x="414" y="270" width="80" height="30" as="geometry" />
        </mxCell>
        <mxCell id="f_cGPFJDXGQllaGJy8tu-82" value="&lt;div&gt;API Resource Handling/&lt;/div&gt;&lt;div&gt;Formatting&lt;/div&gt;" style="ellipse;whiteSpace=wrap;html=1;aspect=fixed;fillColor=#dae8fc;strokeColor=#6c8ebf;" vertex="1" parent="1">
          <mxGeometry x="370" y="435" width="80" height="80" as="geometry" />
        </mxCell>
        <mxCell id="f_cGPFJDXGQllaGJy8tu-83" style="edgeStyle=orthogonalEdgeStyle;rounded=0;orthogonalLoop=1;jettySize=auto;html=1;entryX=0;entryY=0.5;entryDx=0;entryDy=0;entryPerimeter=0;startArrow=classic;startFill=1;" edge="1" parent="1" source="f_cGPFJDXGQllaGJy8tu-82" target="f_cGPFJDXGQllaGJy8tu-22">
          <mxGeometry relative="1" as="geometry" />
        </mxCell>
        <mxCell id="f_cGPFJDXGQllaGJy8tu-85" value="" style="endArrow=classic;html=1;rounded=0;exitX=1;exitY=0.5;exitDx=0;exitDy=0;entryX=0.5;entryY=0;entryDx=0;entryDy=0;" edge="1" parent="1" source="f_cGPFJDXGQllaGJy8tu-48" target="f_cGPFJDXGQllaGJy8tu-63">
          <mxGeometry width="50" height="50" relative="1" as="geometry">
            <mxPoint x="730" y="270" as="sourcePoint" />
            <mxPoint x="780" y="220" as="targetPoint" />
            <Array as="points">
              <mxPoint x="750" y="230" />
              <mxPoint x="750" y="-40" />
              <mxPoint x="410" y="-40" />
            </Array>
          </mxGeometry>
        </mxCell>
        <mxCell id="f_cGPFJDXGQllaGJy8tu-86" value="Token in cookie" style="text;html=1;strokeColor=none;fillColor=none;align=center;verticalAlign=middle;whiteSpace=wrap;rounded=0;" vertex="1" parent="1">
          <mxGeometry x="677" y="190" width="60" height="30" as="geometry" />
        </mxCell>
        <mxCell id="f_cGPFJDXGQllaGJy8tu-88" value="Resource or Resource Query" style="text;html=1;strokeColor=none;fillColor=none;align=center;verticalAlign=middle;whiteSpace=wrap;rounded=0;" vertex="1" parent="1">
          <mxGeometry x="410" y="405" width="80" height="30" as="geometry" />
        </mxCell>
        <mxCell id="f_cGPFJDXGQllaGJy8tu-89" value="Query for resource or resource" style="text;html=1;strokeColor=none;fillColor=none;align=center;verticalAlign=middle;whiteSpace=wrap;rounded=0;" vertex="1" parent="1">
          <mxGeometry x="575" y="440" width="110" height="30" as="geometry" />
        </mxCell>
      </root>
    </mxGraphModel>
  </diagram>
</mxfile>
